<?xml version="1.0" standalone="no"?><!DOCTYPE svg PUBLIC "-//W3C//DTD SVG 1.1//EN" "http://www.w3.org/Graphics/SVG/1.1/DTD/svg11.dtd"><svg t="1603345893695" class="icon" viewBox="0 0 1024 1024" version="1.1" xmlns="http://www.w3.org/2000/svg" p-id="3475" xmlns:xlink="http://www.w3.org/1999/xlink" width="200" height="200"><defs><style type="text/css"></style></defs><path d="M512 905.728c-217.6 0-393.728-176.128-393.728-393.728 0-217.6 176.128-393.728 393.728-393.728 217.6 0 393.728 176.128 393.728 393.728 0 217.6-176.128 393.728-393.728 393.728zM420.352 328.192c-21.504 0-39.424 17.408-39.424 39.424v288.768c0 21.504 17.408 39.424 39.424 39.424s39.424-17.408 39.424-39.424V367.616c-0.512-21.504-17.92-39.424-39.424-39.424z m183.296 0c-21.504 0-39.424 17.408-39.424 39.424v288.768c0 21.504 17.408 39.424 39.424 39.424 21.504 0 39.424-17.408 39.424-39.424V367.616c0-21.504-17.408-39.424-39.424-39.424z m0 0" p-id="3476"></path></svg>